<svg xmlns="http://www.w3.org/2000/svg" viewBox="0 0 256 257"><defs><linearGradient id="a" x1="-.8%" x2="57.6%" y1="7.7%" y2="78.4%"><stop offset="0%" stop-color="#41D1FF"/><stop offset="100%" stop-color="#BD34FE"/></linearGradient><linearGradient id="b" x1="43.4%" x2="50.3%" y1="2.2%" y2="89%"><stop offset="0%" stop-color="#FFEA83"/><stop offset="8.3%" stop-color="#FFDD35"/><stop offset="100%" stop-color="#FFA800"/></linearGradient></defs><path fill="url(#a)" d="M255 38 135 253c-2 4-9 5-11 0L1 38c-3-5 1-11 7-9l120 21a7 7 0 0 0 3 0l118-21c5-1 10 5 6 9Z"/><path fill="url(#b)" d="M185 0 96 18a3 3 0 0 0-3 3l-5 92a3 3 0 0 0 4 3l25-5c2-1 4 1 4 4l-7 36c-1 2 2 5 4 4l16-5c2-1 5 1 4 3l-12 59c-1 5 5 9 8 5l67-67a3 3 0 0 0-1-5l-26-13a3 3 0 0 1-1-5l92-89a3 3 0 0 0-2-6l-118 2c-2 0-5-2-4-4l5-116a3 3 0 0 0-4-3l-32 6a3 3 0 0 0-3 2l-5 169Z"/></svg>
